<svg width="449" height="115" viewBox="0 0 449 115" fill="none" 
    xmlns="http://www.w3.org/2000/svg">
    <mask id="path-1-outside-1" maskUnits="userSpaceOnUse" x="0.0117188" y="0.570312" width="449" height="115" fill="black">
        <rect fill="white" x="0.0117188" y="0.570312" width="449" height="115" />
        <path d="M13.6211 90V5.97656H43.3867C73.2305 5.97656 88.1523 19.6289 88.1523 46.9336C88.1523 60.0195 84.0703 70.4688 75.9062 78.2812C67.7812 86.0938 56.9414 90 43.3867 90H13.6211ZM32.5469 21.3867V74.6484H41.9219C50.125 74.6484 56.5508 72.1875 61.1992 67.2656C65.8867 62.3438 68.2305 55.6445 68.2305 47.168C68.2305 39.1602 65.9062 32.8711 61.2578 28.3008C56.6484 23.6914 50.1641 21.3867 41.8047 21.3867H32.5469Z" />
        <path d="M152.488 90H102.098V5.97656H150.555V21.3867H121.023V40.0781H148.504V55.4297H121.023V74.6484H152.488V90Z" />
        <path d="M162.098 86.7773V68.0273C165.496 70.8789 169.188 73.0273 173.172 74.4727C177.156 75.8789 181.18 76.582 185.242 76.582C187.625 76.582 189.695 76.3672 191.453 75.9375C193.25 75.5078 194.734 74.9219 195.906 74.1797C197.117 73.3984 198.016 72.5 198.602 71.4844C199.188 70.4297 199.48 69.2969 199.48 68.0859C199.48 66.4453 199.012 64.9805 198.074 63.6914C197.137 62.4023 195.848 61.2109 194.207 60.1172C192.605 59.0234 190.691 57.9688 188.465 56.9531C186.238 55.9375 183.836 54.9023 181.258 53.8477C174.695 51.1133 169.793 47.7734 166.551 43.8281C163.348 39.8828 161.746 35.1172 161.746 29.5312C161.746 25.1562 162.625 21.4062 164.383 18.2812C166.141 15.1172 168.523 12.5195 171.531 10.4883C174.578 8.45703 178.094 6.97266 182.078 6.03516C186.062 5.05859 190.281 4.57031 194.734 4.57031C199.109 4.57031 202.977 4.84375 206.336 5.39062C209.734 5.89844 212.859 6.69922 215.711 7.79297V25.3125C214.305 24.3359 212.762 23.4766 211.082 22.7344C209.441 21.9922 207.742 21.3867 205.984 20.918C204.227 20.4102 202.469 20.0391 200.711 19.8047C198.992 19.5703 197.352 19.4531 195.789 19.4531C193.641 19.4531 191.688 19.668 189.93 20.0977C188.172 20.4883 186.688 21.0547 185.477 21.7969C184.266 22.5391 183.328 23.4375 182.664 24.4922C182 25.5078 181.668 26.6602 181.668 27.9492C181.668 29.3555 182.039 30.625 182.781 31.7578C183.523 32.8516 184.578 33.9062 185.945 34.9219C187.312 35.8984 188.973 36.875 190.926 37.8516C192.879 38.7891 195.086 39.7656 197.547 40.7812C200.906 42.1875 203.914 43.6914 206.57 45.293C209.266 46.8555 211.57 48.6328 213.484 50.625C215.398 52.6172 216.863 54.9023 217.879 57.4805C218.895 60.0195 219.402 62.9883 219.402 66.3867C219.402 71.0742 218.504 75.0195 216.707 78.2227C214.949 81.3867 212.547 83.9648 209.5 85.957C206.453 87.9102 202.898 89.3164 198.836 90.1758C194.812 91.0352 190.555 91.4648 186.062 91.4648C181.453 91.4648 177.059 91.0742 172.879 90.293C168.738 89.5117 165.145 88.3398 162.098 86.7773Z" />
        <path d="M259.188 5.97656V20.625H252.156V75.3516H259.188V90H226.199V75.3516H233.23V20.625H226.199V5.97656H259.188Z" />
        <path d="M271.316 90V5.97656H301.082C330.926 5.97656 345.848 19.6289 345.848 46.9336C345.848 60.0195 341.766 70.4688 333.602 78.2812C325.477 86.0938 314.637 90 301.082 90H271.316ZM290.242 21.3867V74.6484H299.617C307.82 74.6484 314.246 72.1875 318.895 67.2656C323.582 62.3438 325.926 55.6445 325.926 47.168C325.926 39.1602 323.602 32.8711 318.953 28.3008C314.344 23.6914 307.859 21.3867 299.5 21.3867H290.242Z" />
        <path d="M435.379 90H416.277L381.648 37.207C379.617 34.1211 378.211 31.7969 377.43 30.2344H377.195C377.508 33.2031 377.664 37.7344 377.664 43.8281V90H359.793V5.97656H380.184L413.523 57.1289C415.047 59.4336 416.453 61.7188 417.742 63.9844H417.977C417.664 62.0312 417.508 58.1836 417.508 52.4414V5.97656H435.379V90Z" />
        <path d="M4.01172 103.887H444.988V110.859H4.01172V103.887Z" />
    </mask>
    <path d="M13.6211 90V5.97656H43.3867C73.2305 5.97656 88.1523 19.6289 88.1523 46.9336C88.1523 60.0195 84.0703 70.4688 75.9062 78.2812C67.7812 86.0938 56.9414 90 43.3867 90H13.6211ZM32.5469 21.3867V74.6484H41.9219C50.125 74.6484 56.5508 72.1875 61.1992 67.2656C65.8867 62.3438 68.2305 55.6445 68.2305 47.168C68.2305 39.1602 65.9062 32.8711 61.2578 28.3008C56.6484 23.6914 50.1641 21.3867 41.8047 21.3867H32.5469Z" stroke="white" stroke-width="8" mask="url(#path-1-outside-1)" />
    <path d="M152.488 90H102.098V5.97656H150.555V21.3867H121.023V40.0781H148.504V55.4297H121.023V74.6484H152.488V90Z" stroke="white" stroke-width="8" mask="url(#path-1-outside-1)" />
    <path d="M162.098 86.7773V68.0273C165.496 70.8789 169.188 73.0273 173.172 74.4727C177.156 75.8789 181.18 76.582 185.242 76.582C187.625 76.582 189.695 76.3672 191.453 75.9375C193.25 75.5078 194.734 74.9219 195.906 74.1797C197.117 73.3984 198.016 72.5 198.602 71.4844C199.188 70.4297 199.48 69.2969 199.48 68.0859C199.48 66.4453 199.012 64.9805 198.074 63.6914C197.137 62.4023 195.848 61.2109 194.207 60.1172C192.605 59.0234 190.691 57.9688 188.465 56.9531C186.238 55.9375 183.836 54.9023 181.258 53.8477C174.695 51.1133 169.793 47.7734 166.551 43.8281C163.348 39.8828 161.746 35.1172 161.746 29.5312C161.746 25.1562 162.625 21.4062 164.383 18.2812C166.141 15.1172 168.523 12.5195 171.531 10.4883C174.578 8.45703 178.094 6.97266 182.078 6.03516C186.062 5.05859 190.281 4.57031 194.734 4.57031C199.109 4.57031 202.977 4.84375 206.336 5.39062C209.734 5.89844 212.859 6.69922 215.711 7.79297V25.3125C214.305 24.3359 212.762 23.4766 211.082 22.7344C209.441 21.9922 207.742 21.3867 205.984 20.918C204.227 20.4102 202.469 20.0391 200.711 19.8047C198.992 19.5703 197.352 19.4531 195.789 19.4531C193.641 19.4531 191.688 19.668 189.93 20.0977C188.172 20.4883 186.688 21.0547 185.477 21.7969C184.266 22.5391 183.328 23.4375 182.664 24.4922C182 25.5078 181.668 26.6602 181.668 27.9492C181.668 29.3555 182.039 30.625 182.781 31.7578C183.523 32.8516 184.578 33.9062 185.945 34.9219C187.312 35.8984 188.973 36.875 190.926 37.8516C192.879 38.7891 195.086 39.7656 197.547 40.7812C200.906 42.1875 203.914 43.6914 206.57 45.293C209.266 46.8555 211.57 48.6328 213.484 50.625C215.398 52.6172 216.863 54.9023 217.879 57.4805C218.895 60.0195 219.402 62.9883 219.402 66.3867C219.402 71.0742 218.504 75.0195 216.707 78.2227C214.949 81.3867 212.547 83.9648 209.5 85.957C206.453 87.9102 202.898 89.3164 198.836 90.1758C194.812 91.0352 190.555 91.4648 186.062 91.4648C181.453 91.4648 177.059 91.0742 172.879 90.293C168.738 89.5117 165.145 88.3398 162.098 86.7773Z" stroke="white" stroke-width="8" mask="url(#path-1-outside-1)" />
    <path d="M259.188 5.97656V20.625H252.156V75.3516H259.188V90H226.199V75.3516H233.23V20.625H226.199V5.97656H259.188Z" stroke="white" stroke-width="8" mask="url(#path-1-outside-1)" />
    <path d="M271.316 90V5.97656H301.082C330.926 5.97656 345.848 19.6289 345.848 46.9336C345.848 60.0195 341.766 70.4688 333.602 78.2812C325.477 86.0938 314.637 90 301.082 90H271.316ZM290.242 21.3867V74.6484H299.617C307.82 74.6484 314.246 72.1875 318.895 67.2656C323.582 62.3438 325.926 55.6445 325.926 47.168C325.926 39.1602 323.602 32.8711 318.953 28.3008C314.344 23.6914 307.859 21.3867 299.5 21.3867H290.242Z" stroke="white" stroke-width="8" mask="url(#path-1-outside-1)" />
    <path d="M435.379 90H416.277L381.648 37.207C379.617 34.1211 378.211 31.7969 377.43 30.2344H377.195C377.508 33.2031 377.664 37.7344 377.664 43.8281V90H359.793V5.97656H380.184L413.523 57.1289C415.047 59.4336 416.453 61.7188 417.742 63.9844H417.977C417.664 62.0312 417.508 58.1836 417.508 52.4414V5.97656H435.379V90Z" stroke="white" stroke-width="8" mask="url(#path-1-outside-1)" />
    <path d="M4.01172 103.887H444.988V110.859H4.01172V103.887Z" stroke="white" stroke-width="8" mask="url(#path-1-outside-1)" />
</svg>